<svg xmlns="http://www.w3.org/2000/svg" width="24" height="24" viewBox="0 0 0.96 0.96">



<path d="M.48.96Q.382.96.294.922T.141.82Q.076.754.038.666 0 .578 0 .48q0-.1.038-.187T.14.141Q.206.076.294.038.382 0 .48 0q.1 0 .187.038T.819.14q.065.065.103.152Q.96.38.96.48q0 .098-.038.186T.82.819Q.754.884.667.922.58.96.48.96Zm0-.098Q.511.818.534.772q.023-.047.037-.1H.39q.014.053.037.1.023.046.054.09zM.355.842Q.334.802.317.76.301.718.29.672H.15q.035.06.087.104.052.045.12.066zm.25 0Q.672.821.725.776.775.732.81.672H.67Q.659.718.643.76.626.803.605.842ZM.108.576h.163L.266.529Q.264.505.264.48T.266.431L.27.384H.108Q.102.408.099.431.096.455.096.48t.003.049q.003.023.009.047zm.26 0h.225L.598.529Q.6.505.6.48T.598.431L.593.384H.367L.362.431Q.36.455.36.48t.002.049l.005.047zm.32 0h.164Q.858.552.861.529.864.505.864.48T.861.431Q.858.408.852.384H.689l.005.047Q.696.455.696.48T.694.529L.69.576ZM.67.288h.14Q.776.228.724.184.672.139.604.118q.023.04.04.082.015.042.026.088zm-.281 0H.57Q.557.235.534.188.511.142.48.098.449.142.426.188q-.023.047-.037.1Zm-.24 0H.29Q.301.242.317.2.334.157.355.118.288.139.235.184.185.228.15.288Z" style="stroke-width:.0012"/></svg>