<svg
   fill="#000000"
   width="24"
   height="24"
   viewBox="0 0 0.96 0.96"
   version="1.1"
   id="svg1"
   xmlns="http://www.w3.org/2000/svg"
   xmlns:svg="http://www.w3.org/2000/svg">
  <defs
     id="defs1" />
  <path
     d="m 0.95999329,0.31517352 c 0,-0.20828572 -0.1462432,-0.26924446 -0.1462432,-0.26924446 C 0.74003359,0.01421971 0.61340959,9.2998e-4 0.48173609,0 h -0.00318 c -0.1315167,9.2998e-4 -0.2581728,0.01418971 -0.3318251,0.04592906 0,0 -0.14643609611,0.06095874 -0.14643609611,0.26924446 0,0.047639 -9.97e-4,0.10466784 6.754e-4,0.1651466 C 0.00634029,0.68407593 0.04101229,0.8846818 0.24286489,0.93451077 c 0.093143,0.0230095 0.1730345,0.0278394 0.2373596,0.0245695 0.1167822,-0.00612 0.1822652,-0.0389092 0.1822652,-0.0389092 l -0.00386,-0.0790784 c 0,0 -0.083398,0.0245695 -0.1770549,0.0215695 -0.092789,-0.00297 -0.1907882,-0.00921 -0.2057116,-0.11558762 -0.00151,-0.00984 -0.00215,-0.0198296 -0.00215,-0.0298494 0,0 0.091084,0.0207596 0.2067087,0.0257695 0.0705,0.00297 0.1366586,-0.00387 0.2040392,-0.0113998 0.128811,-0.0141897 0.2412191,-0.0884382 0.2552741,-0.15608679 0.022096,-0.10655781 0.02023,-0.26030464 0.02023,-0.26030464 z m -0.17252,0.26843447 H 0.68043639 V 0.33878303 c 0,-0.0515689 -0.023286,-0.0778484 -0.069857,-0.0778484 -0.051428,0 -0.077222,0.0311094 -0.077222,0.0925181 V 0.48751997 H 0.42683469 V 0.35345273 c 0,-0.0614087 -0.025827,-0.0925181 -0.077222,-0.0925181 -0.046571,0 -0.069857,0.0262795 -0.069857,0.0778484 V 0.583458 H 0.17271839 V 0.33143318 c 0,-0.0515689 0.014055,-0.0924881 0.042358,-0.12278747 0.029172,-0.0303294 0.067188,-0.0459591 0.1145952,-0.0459591 0.054805,0 0.096327,0.0197096 0.1237937,0.0590688 l 0.026631,0.0417291 0.026631,-0.0417291 c 0.027499,-0.0393592 0.068989,-0.0590688 0.1237937,-0.0590688 0.047375,0 0.085584,0.0156297 0.114756,0.0459591 0.028142,0.0303294 0.042197,0.0712485 0.042197,0.12278747 z"
     id="path1"
     style="stroke-width:0.0310621" />
</svg>