<svg
   width="24"
   height="24"
   viewBox="0 0 24 24"
   fill="currentColor"
   stroke-width="2"
   class="ai ai-MatrixFill"
   version="1.1"
   id="svg1"
   xmlns="http://www.w3.org/2000/svg"
   xmlns:svg="http://www.w3.org/2000/svg">
  <defs
     id="defs1" />
  <svg
     id="SvgjsSvg1006"
     width="512"
     height="512"
     version="1.1"
     viewBox="0 0 512 512">
    <defs
       id="SvgjsDefs1005" />
    <rect
       width="24"
       height="24"
       rx="7.2000003"
       fill="#00639b"
       stroke-width="0.342858"
       id="SvgjsRect1004"
       x="3.6206055e-07"
       y="1.2976074e-08" />
    <g
       transform="matrix(0.00361861,0,0,-0.003615,2.736328,21.251719)"
       fill="#ffffff"
       id="SvgjsG1003">
      <path
         id="SvgjsPath1002"
         d="M 900,4668 V 4215 L 774,3899 647,3583 326,3479 5,3374 2,3000 c -1,-234 2,-394 8,-426 17,-82 65,-171 123,-227 109,-107 206,-137 440,-137 h 147 v -130 c 0,-104 4,-142 21,-192 28,-86 84,-164 156,-219 83,-63 160,-87 306,-95 l 117,-7 v -325 l 178,-49 177,-50 10,-808 32,-68 c 58,-123 172,-219 298,-252 88,-22 1022,-22 1110,0 128,34 239,127 298,252 l 32,68 10,810 168,49 167,49 v 324 l 120,7 c 231,13 356,90 442,273 31,65 33,74 36,216 l 4,147 h 147 c 232,0 329,31 438,137 58,56 106,145 123,227 6,32 9,192 8,426 l -3,374 -321,105 -321,104 -127,316 -126,316 v 905 h -109 c -244,0 -414,-66 -572,-220 -122,-120 -203,-285 -215,-438 -9,-109 -9,-109 -56,-117 -134,-22 -319,-104 -440,-195 -77,-58 -193,-180 -235,-245 -15,-25 -30,-45 -33,-45 -3,1 -27,32 -55,71 -57,82 -167,189 -251,246 -116,79 -281,148 -402,168 -47,8 -47,8 -56,117 -12,152 -93,316 -216,438 -155,154 -327,220 -571,220 H 900 Z m 375,93 c 60,-34 125,-96 159,-150 35,-55 66,-152 66,-206 v -45 h -290 v 215 c 0,118 3,215 8,215 4,0 30,-13 57,-29 z m 2635,-186 v -215 h -290 v 45 c 0,91 54,209 130,285 35,35 134,100 153,100 4,0 7,-97 7,-215 z M 1823,4044 c 217,-48 409,-199 506,-398 69,-141 74,-167 78,-483 l 5,-283 h -101 c -98,0 -101,1 -101,23 0,45 -42,173 -83,252 -52,103 -189,244 -290,300 -121,67 -202,87 -369,93 l -148,4 -2,-838 -3,-839 -58,-3 c -119,-6 -189,23 -226,95 -7,14 -11,109 -11,282 v 260 l -309,3 c -295,3 -311,4 -337,24 -64,47 -69,62 -72,225 l -3,149 h 331 v 300 l -72,1 h -73 l 195,67 194,67 133,330 c 72,182 136,342 142,358 l 10,27 h 296 c 235,0 311,-3 368,-16 z m 2281,-344 142,-355 194,-67 195,-67 h -72 l -73,-1 v -300 h 331 l -3,-149 c -3,-163 -8,-178 -72,-225 -26,-20 -42,-21 -337,-24 l -309,-3 v -260 c 0,-173 -4,-268 -11,-282 -37,-72 -107,-101 -226,-95 l -58,3 -3,839 -2,838 -148,-4 c -126,-4 -158,-9 -227,-32 -127,-43 -201,-90 -301,-190 -77,-77 -98,-106 -137,-186 -45,-92 -77,-190 -77,-237 0,-22 -2,-23 -101,-23 h -101 l 4,283 c 5,315 9,341 78,482 72,149 195,269 349,343 136,65 178,71 520,69 l 303,-2 z M 1706,3182 c 33,-21 77,-59 98,-83 43,-50 94,-149 103,-202 5,-34 4,-34 -41,-46 -62,-15 -147,-54 -202,-90 l -44,-30 v 244 c 0,199 3,245 13,245 8,0 41,-17 73,-38 z m 1794,-202 c 0,-132 -2,-240 -4,-240 -2,0 -34,18 -71,39 -37,22 -101,50 -142,63 l -75,23 6,34 c 8,52 60,154 102,201 41,45 147,120 171,120 10,0 13,-46 13,-240 z m -335,-416 c 152,-39 275,-160 319,-314 14,-48 16,-111 14,-420 l -3,-364 -130,-38 c -71,-21 -147,-43 -167,-49 l -38,-10 V 403 l -23,-34 c -40,-61 -71,-69 -259,-69 h -168 v 340 h 150 V 940 H 2280 V 640 h 130 V 300 h -157 c -178,0 -210,9 -250,69 l -23,34 v 965 l -32,11 c -18,5 -91,26 -163,46 -71,20 -138,38 -147,41 -17,5 -18,31 -18,368 0,385 3,413 52,510 27,53 99,128 160,167 103,67 112,67 723,68 467,1 560,-1 610,-15 z" />
      <path
         id="SvgjsPath1001"
         d="m 1965,2129 c -17,-51 -75,-272 -72,-276 7,-7 460,-133 478,-133 11,0 25,35 54,136 22,78 34,139 29,144 -5,4 -110,36 -233,70 -123,34 -230,64 -237,67 -8,3 -16,-1 -19,-8 z" />
      <path
         id="SvgjsPath1000"
         d="m 2900,2070 c -124,-37 -225,-72 -224,-76 6,-46 80,-274 89,-274 17,0 445,127 452,134 8,8 -72,280 -83,282 -5,1 -110,-29 -234,-66 z" />
    </g>
  </svg>
  <style
     id="style1">&#10;											@media (prefers-color-scheme: light) {&#10;												#SvgjsG1002,&#10;												#SvgjsG1003,&#10;												#SvgjsPath1000,&#10;												#SvgjsPath1001 {&#10;													fill: #fcfcff;&#10;													fill-opacity: 1;&#10;												}&#10;											}&#10;&#10;											@media (prefers-color-scheme: dark) {&#10;												#SvgjsG1002,&#10;												#SvgjsG1003,&#10;												#SvgjsPath1000,&#10;												#SvgjsPath1001 {&#10;													fill: #1a1c1e;&#10;												}&#10;&#10;												#SvgjsRect1004 {&#10;													fill: #96cbff;&#10;												}&#10;											}&#10;										</style>
</svg>
