<?xml version="1.0" encoding="UTF-8" standalone="no"?>
<svg
   fill="#000000"
   width="24"
   height="24"
   viewBox="0 0 0.96 0.96"
   version="1.1"
   id="svg1"
   xmlns="http://www.w3.org/2000/svg"
   xmlns:svg="http://www.w3.org/2000/svg">
  <defs
     id="defs1" />
  <path
     d="m 0.4800001,0.9599997 q -0.0984,0 -0.1860001,-0.037798 Q 0.2064,0.8844017 0.1410001,0.8190004 0.0756,0.753601 0.0378001,0.6659997 0,0.5784007 0,0.4799997 0,0.3803997 0.0378,0.2933991 0.0756,0.2064001 0.141,0.1409994 0.2064,0.0756004 0.2939999,0.0378 0.3815999,0 0.4800001,0 0.5796,0 0.66659994,0.0378 q 0.0870001,0.0378 0.1524,0.1031994 0.0654,0.065401 0.10320012,0.1523997 Q 0.96,0.3803997 0.96,0.4799997 q 0,0.098401 -0.0377999,0.186 Q 0.8844,0.7536007 0.81899998,0.819 0.75360008,0.884401 0.66659998,0.9222013 0.57960008,0.9599997 0.4800001,0.9599997 Z m 0,-0.098399 q 0.0312,-0.043201 0.0539999,-0.090001 0.0228,-0.046798 0.0372,-0.0996 H 0.3888 q 0.0143991,0.052802 0.0372,0.0996 0.0228,0.0468 0.0540001,0.090001 z M 0.3552,0.8424013 Q 0.3336,0.8027993 0.3174,0.7602013 0.301199,0.7176003 0.2904,0.6719993 H 0.1488002 q 0.0348,0.06 0.087,0.1044003 0.0522,0.0444 0.1193998,0.0660017 z m 0.24959996,0 q 0.0672001,-0.021602 0.11939998,-0.066002 0.0522001,-0.0444 0.0870001,-0.1044003 H 0.66960003 Q 0.65880023,0.7176 0.64260003,0.760201 0.62639953,0.8028 0.60479996,0.8424013 Z M 0.1080001,0.5760003 H 0.2712 q -0.0036,-0.024 -0.0054,-0.047401 -0.0018,-0.023399 -0.0018,-0.0486 0,-0.025201 0.0018,-0.0486 0.0018,-0.023399 0.0054,-0.047401 H 0.1080001 q -0.006,0.024002 -0.009,0.047401 -0.003,0.023399 -0.003,0.0486 0,0.025201 0.003,0.0486 0.003,0.023401 0.009,0.047401 z m 0.2592,0 h 0.22559984 q 0.003599,-0.024 0.005401,-0.047401 0.001797,-0.023399 0.001797,-0.0486 0,-0.025201 -0.001797,-0.0486 -0.001797,-0.023399 -0.005401,-0.047401 H 0.3672001 q -0.0036,0.024002 -0.0054,0.047401 -0.0018,0.023399 -0.0018,0.0486 0,0.025201 0.0018,0.0486 0.0018,0.023401 0.0054,0.047401 z m 0.3215999,0 h 0.1631999 q 0.005999,-0.024 0.009,-0.047401 0.003001,-0.023399 0.003001,-0.0486 0,-0.025201 -0.003001,-0.0486 -0.003001,-0.023399 -0.009,-0.047401 H 0.6888 q 0.003599,0.024002 0.005401,0.047401 0.001797,0.023399 0.001797,0.0486 0,0.025201 -0.001797,0.0486 Q 0.692404,0.5520003 0.6888,0.5760003 Z M 0.6696001,0.288 h 0.14160001 q -0.0348,-0.06 -0.0870001,-0.1044003 -0.0521999,-0.0444 -0.11939998,-0.066 0.0216001,0.0396 0.0378001,0.0822 0.0162005,0.042599 0.027,0.0882003 z M 0.3888,0.288 H 0.57120007 Q 0.55679917,0.2352 0.53400007,0.1884 0.51120007,0.1416 0.48000017,0.098399 0.44879997,0.1416 0.42600007,0.1884 0.40320007,0.2352 0.3888,0.288 Z m -0.2399999,0 h 0.1415998 q 0.0108,-0.045601 0.027,-0.0882 0.016201,-0.042601 0.0378,-0.0822 Q 0.2879999,0.1392 0.2358,0.1836 0.1836,0.228 0.1488001,0.288 Z"
     id="path1"
     style="stroke-width:0.0012" />
</svg>
