<svg xmlns="http://www.w3.org/2000/svg" width="24" height="24" viewBox="0 0 0.96 0.96"><path d="M.96.315C.96.107.814.045.814.045A.968.968 0 0 0 .482 0H.479a.966.966 0 0 0-.332.046S0 .106 0 .316L.001.48c.005.204.04.405.242.455A.816.816 0 0 0 .48.959C.597.953.662.92.662.92L.66.841S.575.866.482.863C.389.86.29.853.276.747a.197.197 0 0 1-.002-.03s.09.021.206.026C.55.746.617.739.684.732.814.717.926.643.94.576.962.469.96.316.96.316zM.787.584H.68V.339C.68.287.657.26.61.26.56.26.534.292.534.353v.135H.427V.353C.427.292.4.261.35.261.303.26.28.287.28.339v.244H.173V.331A.17.17 0 0 1 .215.21.152.152 0 0 1 .33.163c.054 0 .096.02.123.059L.48.263.507.222C.534.182.576.162.63.162a.15.15 0 0 1 .114.047.17.17 0 0 1 .042.122z" style="stroke-width:.0310621"/></svg>